<?xml version="1.0" encoding="UTF-8" standalone="no"?>
<svg
   xmlns:dc="http://purl.org/dc/elements/1.1/"
   xmlns:cc="http://creativecommons.org/ns#"
   xmlns:rdf="http://www.w3.org/1999/02/22-rdf-syntax-ns#"
   xmlns:svg="http://www.w3.org/2000/svg"
   xmlns="http://www.w3.org/2000/svg"
   xmlns:xlink="http://www.w3.org/1999/xlink"
   xmlns:sodipodi="http://sodipodi.sourceforge.net/DTD/sodipodi-0.dtd"
   xmlns:inkscape="http://www.inkscape.org/namespaces/inkscape"
   width="72"
   height="72"
   viewBox="0 0 72 72"
   version="1.1"
   id="svg40"
   sodipodi:docname="logo.svg"
   inkscape:version="0.92.2 (unknown)">
  <metadata
     id="metadata44">
    <rdf:RDF>
      <cc:Work
         rdf:about="">
        <dc:format>image/svg+xml</dc:format>
        <dc:type
           rdf:resource="http://purl.org/dc/dcmitype/StillImage" />
      </cc:Work>
    </rdf:RDF>
  </metadata>
  <sodipodi:namedview
     pagecolor="#ffffff"
     bordercolor="#666666"
     borderopacity="1"
     objecttolerance="10"
     gridtolerance="10"
     guidetolerance="10"
     inkscape:pageopacity="0"
     inkscape:pageshadow="2"
     inkscape:window-width="1680"
     inkscape:window-height="1001"
     id="namedview42"
     showgrid="false"
     inkscape:zoom="9.2709556"
     inkscape:cx="44.87657"
     inkscape:cy="33.806225"
     inkscape:window-x="1024"
     inkscape:window-y="25"
     inkscape:window-maximized="1"
     inkscape:current-layer="Список масел" />
  <title
     id="title2">logo svg</title>
  <desc
     id="desc4">Created using Figma</desc>
  <g
     id="Canvas"
     transform="matrix(0.5,0,0,0.5,-947.67767,-9.9888602)">
    <g
       id="Список масел">
      <g
         id="Header"
         transform="translate(-191.78174,-14.022288)">
        <g
           id="Рамка" />
        <clipPath
           id="clip-0"
           style="clip-rule:evenodd">
          <path
             d="m 2088,34 h 143 v 144 h -143 z"
             id="path20"
             inkscape:connector-curvature="0"
             style="fill:#ffffff" />
        </clipPath>
        <g
           id="logo svg"
           clip-path="url(#clip-0)">
          <g
             id="path3600">
            <use
               xlink:href="#path3_fill"
               transform="translate(2088,34)"
               id="use23"
               style="fill:#17460f"
               x="0"
               y="0"
               width="100%"
               height="100%" />
          </g>
          <clipPath
             id="clip-1"
             style="clip-rule:evenodd">
            <path
               d="m 2088,34 h 143 v 144 h -143 z"
               id="path26"
               inkscape:connector-curvature="0"
               style="fill:#ffffff" />
          </clipPath>
          <g
             id="логотип svg plain"
             clip-path="url(#clip-1)" />
        </g>
      </g>
    </g>
  </g>
  <defs
     id="defs38">
    <path
       id="path0_fill"
       d="M 0 0L 1920 0L 1920 1671L 0 1671L 0 0Z" />
    <path
       id="path1_stroke_2x"
       d="M 0 0L 0 -1L -1 -1L -1 0L 0 0ZM 1920 0L 1921 0L 1921 -1L 1920 -1L 1920 0ZM 1920 1671L 1920 1672L 1921 1672L 1921 1671L 1920 1671ZM 0 1671L -1 1671L -1 1672L 0 1672L 0 1671ZM 0 1L 1920 1L 1920 -1L 0 -1L 0 1ZM 1919 0L 1919 1671L 1921 1671L 1921 0L 1919 0ZM 1920 1670L 0 1670L 0 1672L 1920 1672L 1920 1670ZM 1 1671L 1 0L -1 0L -1 1671L 1 1671Z" />
    <path
       id="path2_fill"
       d="M 0 0L 1920 0L 1920 200.838L 0 200.838L 0 0Z" />
    <path
       id="path3_fill"
       d="M 65.9373 143.871C 65.4096 143.785 63.4665 143.472 61.6193 143.175C 36.1843 139.083 15.0731 117.363 8.81762 88.8504L 7.82054 84.3056L 6.57185 84.0721C 5.88507 83.9437 4.99969 83.7823 4.60434 83.7135C 4.20899 83.6448 3.09388 83.3766 2.12632 83.1177L 0.367119 82.647L 0.115284 79.6453C -0.149464 76.4897 0.0737647 65.7326 0.460417 63.0138L 0.686973 61.4207L 4.04545 60.8501C 8.12319 60.1574 8.47884 60.0024 8.71402 58.8149C 9.46776 55.0093 11.5039 48.5145 12.6199 46.3561C 12.967 45.6848 13.4308 44.5082 13.6506 43.7414L 14.0503 42.3473L 11.2092 39.4473L 8.36818 36.5473L 8.94603 35.2061C 10.4536 31.707 17.9586 20.531 18.8008 20.531C 18.959 20.531 20.8112 21.4869 22.9169 22.6551C 25.0225 23.8234 27.0131 24.7793 27.3404 24.7793C 27.6676 24.7793 28.2096 24.4432 28.5447 24.0325C 29.9811 22.2721 39.7857 15.2206 40.797 15.2206C 41.2757 15.2206 41.2398 14.596 40.504 10.1158C 40.1549 7.98969 39.8692 6.05544 39.8692 5.8175C 39.8692 4.61854 54.4422 -0.279357 56.9989 0.0603202C 57.7364 0.158307 58.1077 0.706449 59.5943 3.89191C 60.5485 5.93639 61.5658 7.80829 61.8552 8.05168C 62.2461 8.38052 64.6109 8.49421 71.0604 8.49421C 81.2055 8.49421 80.0527 8.99835 82.5907 3.45173C 84.1002 0.152871 84.2146 0.00226074 85.212 8.44317e-06C 88.441 -0.00728443 102.26 4.70779 102.23 5.80646C 102.224 6.01909 101.873 8.09536 101.449 10.4204C 100.672 14.6884 100.667 15.2206 101.407 15.2206C 102.621 15.2206 109.689 19.9669 113.727 23.4943L 115.778 25.2855L 120.085 22.8253L 124.392 20.3651L 125.836 22.1297C 129.074 26.0844 134.546 34.9106 134.546 36.1771C 134.546 36.473 133.254 38.0936 131.675 39.7784L 128.804 42.8416L 130.113 46.1128C 131.913 50.6102 133.16 54.6632 133.596 57.4389C 133.803 58.751 134.197 59.9935 134.495 60.2729C 134.787 60.5465 136.711 61.0541 138.77 61.4009L 142.514 62.0315L 142.768 63.6732C 142.908 64.5761 143.012 69.1842 142.999 73.9133C 142.98 80.8761 142.889 82.6024 142.519 82.9888C 142.133 83.3925 140.276 83.8847 135.447 84.8628C 134.44 85.0667 134.392 85.1785 133.42 89.5655C 129.604 106.783 119.467 122.608 105.919 132.499C 98.7072 137.765 90.2221 141.451 81.6102 143.059C 77.9387 143.745 68.2438 144.247 65.9373 143.871ZM 82.2499 141.106C 84.5369 140.599 87.7035 139.723 89.2867 139.159L 92.1654 138.133L 90.3135 138.1C 87.5308 138.05 85.4662 136.663 84.2534 134.03L 83.7801 133.002L 83.6196 134.851C 83.1346 140.437 77.1086 143.142 73.3302 139.47C 71.8238 138.006 70.7705 135.177 71.0393 133.316C 71.5638 129.685 74.2754 126.991 77.4058 126.991C 79.8226 126.991 81.8401 128.412 83.0768 130.986C 83.4926 131.852 83.5071 131.833 83.7335 130.156C 84.5049 124.437 90.265 122.012 94.1375 125.775C 95.6175 127.213 96.1636 128.678 96.1636 131.209C 96.1636 133.609 95.1583 135.806 93.5327 136.958C 90.1988 139.321 98.2889 135.467 102.799 132.544C 103.369 132.174 103.837 131.792 103.838 131.694C 103.839 131.597 102.939 131.515 101.839 131.512C 99.4187 131.505 98.0264 130.72 96.683 128.604C 94.4634 125.109 95.5951 120.188 99.0698 118.226C 100.732 117.287 103.336 117.304 104.756 118.262C 106.026 119.119 106.21 119.024 105.768 117.736C 104.085 112.835 108.405 107.421 113.06 108.6C 113.882 108.808 114.586 108.944 114.624 108.902C 114.662 108.86 114.326 108.036 113.878 107.072C 113.192 105.597 113.088 104.99 113.223 103.237C 113.518 99.3874 116.025 96.8374 119.516 96.8357C 121.595 96.8346 122.984 97.6106 124.417 99.572C 125.235 100.693 125.42 101.313 125.578 103.466L 125.766 106.028L 127.007 103.372C 128.514 100.145 130.441 94.8161 130.197 94.5467C 130.1 94.4389 129.882 94.6251 129.712 94.9604C 129.542 95.2958 128.728 96.0087 127.901 96.5447C 125.73 97.953 123.273 97.9205 121.372 96.4583C 117.751 93.6734 117.591 87.4747 121.069 84.7499C 121.789 84.1857 122.381 83.624 122.385 83.5017C 122.395 83.1633 119.819 82.5131 119.315 82.727C 119.072 82.8303 118.873 83.2613 118.873 83.6849C 118.873 86.6346 115.277 96.5717 112.586 101.056C 111.91 102.183 111.184 103.444 110.974 103.858C 110.237 105.308 104.954 111.869 104.523 111.869C 104.381 111.869 103.747 112.466 103.113 113.197C 100.779 115.886 96.8374 118.899 92.9651 120.954C 88.2762 123.441 87.4275 123.816 85.1286 124.415C 83.8972 124.736 82.6018 125.146 82.2499 125.326C 79.4969 126.731 62.933 126.731 60.18 125.326C 59.8281 125.146 58.5327 124.736 57.3013 124.415C 56.0698 124.095 54.4146 123.509 53.6229 123.114C 49.9542 121.284 46.6781 119.469 45.9776 118.879C 45.5549 118.523 45.1534 118.293 45.0853 118.368C 45.0173 118.444 45.3399 119.282 45.8023 120.232C 46.5376 121.742 46.6246 122.261 46.496 124.369L 46.3491 126.779L 47.3472 125.644C 48.645 124.168 50.0224 123.552 52.0197 123.552C 55.427 123.552 58.0828 126.748 58.1134 130.886L 58.1259 132.579L 58.6108 131.34C 59.6858 128.593 61.7463 127.042 64.354 127.016C 66.6125 126.994 68.6416 128.282 69.8027 130.474C 70.5434 131.873 70.6312 132.367 70.5214 134.516C 70.4145 136.61 70.2541 137.16 69.4124 138.312C 67.9287 140.344 66.5895 141.072 64.3381 141.072C 61.023 141.072 58.5743 138.616 58.1476 134.864L 57.941 133.047L 56.895 134.692C 52.845 141.062 43.7312 136.147 45.7671 128.69L 46.249 126.925L 45.1834 128.213C 43.7042 130 42.2499 130.764 40.3054 130.775C 36.0698 130.799 32.916 125.663 34.4406 121.225C 34.8592 120.006 34.6774 119.817 33.7397 120.496C 31.0019 122.48 26.6994 120.886 25.1348 117.308C 24.2238 115.225 24.3672 112.037 25.4444 110.424C 25.8444 109.825 26.1185 109.276 26.0533 109.204C 25.9882 109.132 25.3041 109.25 24.5332 109.467C 20.7551 110.528 16.827 107.04 16.8467 102.641C 16.855 100.78 17.7064 98.5737 18.8765 97.3808C 19.9894 96.2462 19.9397 96.0515 18.5819 96.227C 15.9865 96.5623 12.77 93.9747 12.037 90.9618C 11.5614 89.0069 11.8805 87.1534 13.0417 85.1269C 13.5653 84.2131 13.9399 83.4058 13.8741 83.333C 13.6663 83.103 10.4128 84.1464 10.0356 84.564C 9.53207 85.1213 10.1455 88.2294 11.931 94.1678C 19.3487 118.838 37.9059 136.723 60.7595 141.226C 65.9713 142.253 66.0519 142.26 72.3344 142.139C 76.9711 142.05 78.9012 141.849 82.2499 141.106ZM 67.961 130.307C 68.2009 128.526 66.159 127.899 65.2247 129.465C 64.7979 130.181 64.8292 130.323 65.603 131.179C 66.3769 132.036 66.5048 132.07 67.1515 131.598C 67.5392 131.314 67.9035 130.733 67.961 130.307ZM 81.075 130.307C 81.2195 129.235 80.5842 128.508 79.5033 128.508C 77.8503 128.508 77.4521 131.018 78.9996 131.684C 79.8774 132.061 80.933 131.361 81.075 130.307ZM 110.147 126.774C 113.633 123.659 115.618 121.488 114.555 121.952C 112.358 122.912 109.903 122.676 108.212 121.344C 107.302 120.627 107.26 120.622 107.54 121.269C 107.704 121.648 107.838 123.18 107.838 124.674C 107.838 126.945 107.719 127.567 107.109 128.479C 105.926 130.249 106.817 129.749 110.147 126.774ZM 93.221 128.437C 93.4321 128.204 93.6048 127.598 93.6048 127.092C 93.6048 125.979 93.0706 125.322 92.1654 125.322C 91.2475 125.322 90.7261 125.982 90.7261 127.145C 90.7261 128.578 92.3392 129.413 93.221 128.437ZM 55.0711 127.789C 55.9685 126.692 55.3919 125.181 54.0193 125.034C 53.1771 124.944 52.9204 125.087 52.6203 125.816C 52.3223 126.54 52.3535 126.879 52.7853 127.608C 53.4277 128.694 54.2767 128.761 55.0711 127.789ZM 81.4503 123.746C 82.9456 123.411 84.313 123.019 84.4889 122.875C 84.6648 122.731 85.4565 122.41 86.2481 122.161C 88.7517 121.374 93.1337 119.09 95.8036 117.18C 96.8931 116.401 97.8716 115.763 97.978 115.763C 98.2648 115.763 102.162 112.152 104 110.184C 106.217 107.809 110.557 101.947 110.557 101.327C 110.557 101.165 110.926 100.483 111.376 99.8125C 112.076 98.7699 113.101 96.5463 115.204 91.5126C 115.448 90.9285 115.957 89.1761 116.336 87.6184C 116.715 86.0607 117.107 84.5472 117.206 84.2552C 117.306 83.9631 117.416 83.1665 117.451 82.485C 117.485 81.8035 117.681 79.5334 117.885 77.4402C 118.47 71.4343 117.656 63.9361 115.765 57.8991C 113.751 51.47 110.995 46.5445 106.57 41.464C 99.5847 33.4446 92.0192 28.9266 81.2261 26.3287C 77.5971 25.4552 76.4786 25.3433 71.3749 25.3433C 66.2712 25.3433 65.1527 25.4552 61.5237 26.3287C 56.2849 27.5896 52.7468 28.9215 48.7004 31.1557C 38.6712 36.6932 30.5438 46.5663 27.0949 57.4019C 25.3912 62.7544 25.0619 65.0792 24.9706 72.3989C 24.9245 76.1004 24.7899 79.556 24.6715 80.078C 24.5531 80.6 24.6028 81.7136 24.7818 82.5526C 25.282 84.8963 26.7113 90.3655 27.0309 91.1586C 29.3561 96.928 31.3106 100.86 33.0439 103.255C 33.6312 104.067 34.1118 104.899 34.1118 105.105C 34.1118 105.312 34.466 105.737 34.899 106.051C 35.3319 106.365 35.7701 106.915 35.8728 107.273C 36.0946 108.046 42.3872 114.347 42.9379 114.347C 43.1476 114.347 43.3906 114.553 43.4779 114.805C 43.6234 115.225 50.1077 119.657 50.5762 119.657C 50.6884 119.657 51.5997 120.105 52.6014 120.653C 53.603 121.2 55.1423 121.862 56.0219 122.124C 56.9015 122.385 57.7664 122.722 57.9439 122.871C 58.2269 123.109 61.8637 123.932 64.6579 124.389C 67.0769 124.785 78.8171 124.336 81.4503 123.746ZM 62.7388 122.767C 60.0923 121.732 57.4617 118.749 56.8009 116.033C 56.5877 115.156 56.4906 112.623 56.5606 109.764C 56.6958 104.244 57.056 103.113 59.4585 100.661C 61.861 98.2103 62.918 98.0008 72.2376 98.1283C 81.3833 98.2535 81.7187 98.3407 84.2011 101.24C 86.2017 103.577 86.2244 103.679 86.2368 110.399C 86.2499 117.506 86.1052 118.071 83.6484 120.516C 81.1373 123.015 80.2735 123.202 71.3979 123.17C 66.8623 123.153 63.3041 122.988 62.7388 122.767ZM 67.6333 120.277L 67.5366 118.418L 66.0173 118.31L 64.498 118.203L 64.498 119.933C 64.498 120.885 64.594 121.77 64.7112 121.9C 64.8285 122.029 65.5557 122.136 66.3272 122.136L 67.73 122.136L 67.6333 120.277ZM 73.7782 114.259C 73.7832 108.431 73.9071 107.682 74.937 107.248C 75.6486 106.949 75.6929 106.756 75.6929 103.967C 75.6929 101.503 75.7956 100.901 76.302 100.394C 76.8067 99.8883 77.0197 99.8589 77.5454 100.222C 78.3987 100.812 78.5716 102.489 78.5716 110.169C 78.5716 114.308 78.6828 116.437 78.8915 116.294C 79.083 116.163 79.2113 113.815 79.2113 110.44C 79.2113 104.88 79.2216 104.797 79.9801 104.247C 80.5675 103.821 80.7764 103.306 80.8657 102.063C 81.0504 99.4923 80.4045 99.3011 71.5348 99.3011C 64.6489 99.3011 64.2657 99.3374 62.6615 100.14C 60.709 101.117 59.0012 103.059 58.3799 105.008C 57.8943 106.531 57.7763 113.31 58.197 115.508C 58.6154 117.693 59.0605 116.643 59.0605 113.47C 59.0605 111.551 59.2263 110.158 59.5321 109.508C 59.7916 108.957 60.0924 107.112 60.2006 105.408L 60.3973 102.31L 61.4548 102.31L 62.5123 102.31L 62.7222 105.231C 62.8377 106.837 63.0081 108.59 63.1008 109.125C 63.2774 110.145 63.8583 110.485 63.8583 109.568C 63.8583 109.276 63.9889 109.037 64.1485 109.037C 64.3082 109.037 64.5176 108.2 64.614 107.178C 65.0462 102.592 65.1313 102.31 66.0853 102.31C 66.9282 102.31 66.9745 102.403 67.1712 104.486C 67.2842 105.683 67.3767 107.197 67.3767 107.85C 67.3767 108.503 67.5253 109.037 67.7069 109.037C 67.8885 109.037 68.1615 109.395 68.3136 109.833C 68.5874 110.622 68.5938 110.62 68.943 109.633C 69.1371 109.085 69.2971 108.05 69.2986 107.332C 69.3003 106.615 69.3922 105.191 69.5031 104.169L 69.7048 102.31L 70.9397 102.31L 72.1745 102.31L 72.1745 105.674C 72.1745 107.68 72.3036 109.037 72.4944 109.037C 72.6929 109.037 72.8142 110.984 72.8142 114.17C 72.8142 118.497 72.8896 119.303 73.294 119.303C 73.6978 119.303 73.7745 118.505 73.7782 114.259ZM 75.6258 115.996C 75.7102 113.157 75.6667 112.885 75.146 112.995C 74.6561 113.099 74.56 113.567 74.4806 116.238C 74.3963 119.078 74.4397 119.35 74.9604 119.24C 75.4503 119.136 75.5464 118.668 75.6258 115.996ZM 80.8106 111.869C 80.8106 105.811 80.7413 104.789 80.3308 104.789C 79.9252 104.789 79.851 105.629 79.851 110.228C 79.851 115.132 79.788 115.756 79.2113 116.568C 78.8595 117.063 78.5716 117.801 78.5716 118.209C 78.5716 118.819 78.7684 118.949 79.6911 118.949L 80.8106 118.949L 80.8106 111.869ZM 63.1589 117.445C 63.0674 116.394 62.9543 116.285 61.8592 116.184C 60.6792 116.076 60.6597 116.095 60.6597 117.335C 60.6597 118.573 60.6831 118.595 61.9594 118.595C 63.2331 118.595 63.2571 118.572 63.1589 117.445ZM 71.5348 117.356C 71.5348 116.147 71.5044 116.117 70.2554 116.117C 69.0064 116.117 68.976 116.147 68.976 117.356C 68.976 118.566 69.0064 118.595 70.2554 118.595C 71.5043 118.595 71.5348 118.566 71.5348 117.356ZM 84.1349 117.681C 84.2416 117.373 84.329 115.701 84.329 113.964C 84.329 111.394 84.2398 110.807 83.8492 110.807C 83.4532 110.807 83.3694 111.456 83.3694 114.524C 83.3694 117.941 83.6473 119.088 84.1349 117.681ZM 63.1589 113.551C 63.0674 112.5 62.9543 112.39 61.8592 112.29C 60.6792 112.182 60.6597 112.201 60.6597 113.441C 60.6597 114.678 60.6831 114.701 61.9594 114.701C 63.2331 114.701 63.2571 114.678 63.1589 113.551ZM 67.317 113.551C 67.2255 112.5 67.1124 112.39 66.0173 112.29C 64.8373 112.182 64.8179 112.201 64.8179 113.441C 64.8179 114.678 64.8412 114.701 66.1175 114.701C 67.3912 114.701 67.4152 114.678 67.317 113.551ZM 71.5348 113.462C 71.5348 112.252 71.5044 112.223 70.2554 112.223C 69.0064 112.223 68.976 112.252 68.976 113.462C 68.976 114.672 69.0064 114.701 70.2554 114.701C 71.5043 114.701 71.5348 114.672 71.5348 113.462ZM 75.5772 111.692C 75.6785 111.4 75.6723 110.904 75.5634 110.59C 75.4031 110.128 75.275 110.102 74.8895 110.456C 74.6277 110.697 74.4135 111.193 74.4135 111.558C 74.4135 112.349 75.3137 112.452 75.5772 111.692L 75.5772 111.692ZM 84.329 109.391C 84.329 108.277 83.8013 107.948 83.4835 108.864C 83.325 109.322 83.841 110.453 84.2082 110.453C 84.2747 110.453 84.329 109.975 84.329 109.391ZM 75.6369 108.56C 75.7208 107.751 75.6285 107.582 75.1571 107.681C 74.7892 107.758 74.535 108.174 74.4695 108.805C 74.3856 109.614 74.4779 109.783 74.9493 109.684C 75.3173 109.607 75.5714 109.192 75.6369 108.56ZM 84.329 106.706C 84.329 105.597 83.5778 105.718 83.4272 106.852C 83.3593 107.362 83.4936 107.621 83.827 107.621C 84.1536 107.621 84.329 107.301 84.329 106.706ZM 84.4434 104.301C 83.8072 102.825 83.3694 102.645 83.3694 103.86C 83.3694 104.339 83.6802 104.933 84.0891 105.238C 85.0471 105.95 85.097 105.818 84.4434 104.301ZM 37.3103 100.577C 37.0465 100.425 35.9997 99.8551 34.9843 99.3107C 32.9302 98.2096 31.4783 96.4422 30.7493 94.1553C 30.0151 91.852 30.0983 83.4774 30.8741 81.587C 31.6999 79.5749 33.3381 77.7617 35.3912 76.5876L 37.1504 75.5816L 45.1468 75.5816C 52.8132 75.5816 53.2091 75.6152 54.7424 76.3956C 56.6456 77.3643 58.5321 79.2928 59.4874 81.246C 60.1128 82.5247 60.18 83.1945 60.18 88.1494L 60.18 93.6368L 59.07 95.5839C 57.7066 97.9758 56.9408 98.6758 54.3255 99.9207C 52.289 100.89 52.2491 100.894 45.0352 100.873C 41.0504 100.862 37.5742 100.728 37.3103 100.577ZM 53.375 99.108C 55.2307 98.5376 57.2062 96.6788 58.0631 94.697C 59.1058 92.2854 59.3817 86.5315 58.6135 83.2205C 57.9497 80.3599 56.1046 78.2238 53.7178 77.5525C 52.874 77.3152 51.9337 76.9738 51.6282 76.7939C 50.9381 76.3873 39.0089 76.3565 38.7832 76.7607C 38.6929 76.9225 37.8136 77.2543 36.8293 77.4981C 34.7398 78.0157 33.4166 79.2927 32.1927 81.973C 31.472 83.5511 31.393 84.1439 31.393 87.9724C 31.393 92.2978 31.6362 94.1678 32.1988 94.1678C 32.3713 94.1678 32.5097 93.4111 32.5062 92.4862C 32.5002 90.9064 32.5982 90.7081 34.1248 89.2115L 35.7497 87.6184L 35.9384 84.8468C 36.0523 83.1739 36.3073 81.8757 36.5816 81.5721C 36.9066 81.2124 37.8504 81.0689 39.892 81.0689L 42.7479 81.0689L 42.7479 84.9632L 42.7479 88.8575L 50.2645 88.8575L 57.7811 88.8575L 57.7811 91.2879C 57.7811 94.3355 57.0709 95.5839 55.3374 95.5839C 54.4744 95.5839 53.9791 95.3016 53.1639 94.3448C 52.2793 93.3067 51.8878 93.1057 50.7496 93.1057C 49.6057 93.1057 49.2293 93.3014 48.3658 94.3448C 47.3506 95.5715 47.3137 95.5839 44.667 95.5839C 42.0203 95.5839 41.9834 95.5715 40.9682 94.3448C 40.1047 93.3014 39.7283 93.1057 38.5844 93.1057C 37.4462 93.1057 37.0547 93.3067 36.1701 94.3448C 35.032 95.6805 33.8311 95.9583 33.1458 95.0443C 32.4568 94.1254 32.4528 94.7233 33.1394 96.0113C 33.5737 96.8261 34.4495 97.6112 35.7561 98.3571L 37.7201 99.4782L 44.9518 99.476C 48.9464 99.475 52.7169 99.3101 53.375 99.1078L 53.375 99.108ZM 37.1504 97.639C 35.7454 96.7572 35.6424 95.2655 36.9104 94.1615C 37.9905 93.2212 39.7443 93.4066 40.5889 94.5503C 41.3443 95.5733 41.294 96.1632 40.3635 97.1931C 39.5176 98.1293 38.2188 98.3096 37.1504 97.639ZM 49.5422 97.6959C 48.4189 97.1963 47.9797 95.8071 48.609 94.7441C 49.6746 92.944 52.4837 93.3243 53.1292 95.3561C 53.4116 96.2448 53.3434 96.4671 52.5591 97.2139C 51.6289 98.0994 50.7612 98.2381 49.5422 97.6959ZM 43.3876 84.6092L 43.3876 81.0689L 50.1492 81.0689C 58.1623 81.0689 57.7556 80.847 57.7709 85.2287L 57.7811 88.1494L 50.5843 88.1494L 43.3876 88.1494L 43.3876 84.6092L 43.3876 84.6092ZM 40.189 84.5898L 40.189 81.7382L 38.6697 81.8461L 37.1504 81.954L 37.057 84.6977L 36.9636 87.4414L 38.5763 87.4414L 40.189 87.4414L 40.189 84.5898ZM 89.6609 100.659C 89.5442 100.53 88.7002 100.133 87.7853 99.7761C 85.8976 99.0403 84.375 97.5593 83.1148 95.2331C 82.2774 93.6875 82.2499 93.4679 82.2499 88.3264C 82.2499 83.4491 82.311 82.8862 82.9983 81.423C 84.0364 79.213 85.0292 78.144 87.1466 76.9565L 88.9669 75.9356L 97.2831 75.9356L 105.599 75.9356L 107.42 77.0347C 109.332 78.1887 110.391 79.3619 111.383 81.423C 112.229 83.1786 112.439 91.1397 111.714 93.9023C 111.075 96.333 108.518 99.1835 106.367 99.8618C 105.593 100.106 104.823 100.438 104.656 100.6C 104.298 100.947 89.9719 101.004 89.6609 100.659L 89.6609 100.659ZM 103.449 94.469C 103.542 88.9802 103.565 88.8954 105.234 87.9764C 105.873 87.624 105.925 87.2953 106.009 83.0795C 106.085 79.2432 106.179 78.5261 106.632 78.3336C 106.991 78.1812 106.437 77.841 104.944 77.2972C 102.971 76.5789 102.081 76.4866 97.0389 76.4772C 93.9139 76.4714 91.1072 76.611 90.8017 76.7875C 90.4962 76.964 89.5986 77.3225 88.807 77.5841C 87.474 78.0246 87.8463 78.0668 93.8447 78.1556L 100.322 78.2514L 100.322 83.1296C 100.322 87.7823 100.283 88.0723 99.4932 89.4061C 99.0375 90.1753 98.03 91.3274 97.2542 91.9664C 95.8656 93.1102 95.8438 93.1604 95.8438 95.2112C 95.8438 97.0724 95.9544 97.4253 96.8833 98.5264C 97.9216 99.7572 97.9261 99.7586 100.642 99.7069L 103.36 99.6552L 103.449 94.469ZM 101.665 85.6004C 101.419 85.3278 101.281 83.9326 101.281 81.7062C 101.281 78.3219 101.299 78.2368 102.017 78.2368C 103.275 78.2368 103.52 78.8818 103.52 82.1894C 103.52 84.8948 103.441 85.3393 102.902 85.6588C 102.131 86.1155 102.13 86.1155 101.665 85.6004ZM 104.187 85.5299C 103.947 85.2102 103.848 83.8607 103.908 81.7241L 104 78.4138L 104.88 78.3018L 105.759 78.1897L 105.759 81.6827C 105.759 83.9274 105.622 85.3274 105.375 85.6004C 104.879 86.1501 104.641 86.136 104.187 85.5299ZM 90.1151 98.1517C 90.9471 97.2825 91.0459 96.9478 91.0459 94.9991L 91.0459 92.819L 89.5818 91.8693C 88.7188 91.3095 87.7338 90.2497 87.1829 89.2882C 86.278 87.7089 86.2481 87.5148 86.2465 83.2123L 86.2448 78.7678L 85.4589 79.8299C 83.7312 82.1647 83.5292 83.0352 83.5292 88.1494C 83.5292 92.2917 83.6208 93.1479 84.2162 94.5735C 84.9161 96.2492 87.7516 99.1241 88.7044 99.1241C 88.9683 99.1241 89.603 98.6865 90.115 98.1517L 90.1151 98.1517ZM 107.89 97.4782C 108.622 96.828 109.625 95.5384 110.119 94.6124C 110.979 93.0006 111.017 92.7323 111.019 88.3264L 111.021 83.7241L 109.885 81.4433C 109.26 80.1889 108.579 79.1002 108.373 79.0241C 108.099 78.9231 107.998 80.122 107.998 83.4693C 107.998 87.9496 107.979 88.0739 107.155 88.9862C 106.691 89.4995 106.188 89.9195 106.036 89.9195C 105.884 89.9195 105.759 92 105.759 94.5427C 105.759 99.651 105.636 99.4804 107.89 97.4782L 107.89 97.4782ZM 93.9246 95.4298L 93.9246 92.0896L 95.2306 91.0931C 95.9489 90.545 96.9565 89.7239 97.4696 89.2685L 98.4026 88.4405L 98.4026 84.2237L 98.4026 80.0069L 93.2849 80.0069L 88.1673 80.0069L 88.1673 84.1131L 88.1673 88.2194L 89.1606 89.2465C 89.707 89.8114 90.3278 90.2736 90.5401 90.2736C 90.7525 90.2736 91.313 90.7204 91.7857 91.2665C 92.5812 92.1854 92.6452 92.4844 92.6452 95.2787C 92.6452 98.3565 92.7463 98.7701 93.4982 98.7701C 93.8234 98.7701 93.9246 97.9774 93.9246 95.4298ZM 67.5366 86.9676C 66.8329 86.5467 65.4574 85.3261 64.4798 84.2552C 62.3975 81.9741 61.2072 79.0806 60.7068 75.084C 60.1795 70.8724 60.8216 67.8453 63.9432 59.8276C 67.8596 49.7685 69.418 44.8256 70.4895 39.0638C 70.7919 37.4381 71.1183 36.108 71.215 36.108C 71.3116 36.108 71.6478 37.4907 71.9621 39.1806C 72.9208 44.3354 74.7153 50.0579 78.1037 58.7655C 80.0575 63.7862 81.5 68.3951 81.7582 70.4412C 82.5888 77.025 79.6665 84.0964 74.9619 86.8874C 72.9286 88.0936 69.4814 88.1308 67.5366 86.9676ZM 65.7774 81.5824C 65.7774 81.4754 65.5737 80.9517 65.3247 80.4187C 64.0708 77.7349 63.4393 69.7715 64.2113 66.3782C 64.6735 64.3463 64.4312 63.5792 63.7714 64.9859C 62.7982 67.0606 61.8645 71.9161 62.0325 74.0286C 62.2067 76.22 63.1235 78.8069 64.364 80.6069C 65.0798 81.6457 65.7774 82.1272 65.7774 81.5824ZM 37.7901 70.1037C 34.5811 69.3398 32.207 67.4176 31.0366 64.6357C 30.3558 63.0174 30.2795 62.3432 30.2767 57.9215C 30.2728 51.8214 30.5683 50.6301 32.6643 48.2957C 35.1343 45.5449 36.2127 45.2353 43.9885 45.0444C 52.9339 44.8248 55.2795 45.3909 57.8113 48.3803C 60.1886 51.1872 60.3402 51.7283 60.3368 57.3912C 60.3339 62.0102 60.2633 62.647 59.5754 64.2528C 58.6284 66.4634 56.8222 68.403 54.7424 69.4427C 53.2583 70.1847 52.6367 70.2482 46.1064 70.3252C 42.2361 70.3708 38.4938 70.2712 37.7901 70.1037ZM 42.6787 68.0249C 42.9051 67.8659 42.9974 67.4712 42.8844 67.1452C 42.7717 66.8201 42.8282 66.554 43.0101 66.554C 43.1919 66.554 43.4009 66.3549 43.4745 66.1115C 43.5481 65.8681 43.5472 66.1069 43.4725 66.6422C 43.3646 67.4159 43.4404 67.5714 43.8419 67.4008C 44.1198 67.2828 44.3471 67.3626 44.3471 67.5782C 44.3471 67.8299 45.2054 67.9701 46.746 67.9701C 48.2866 67.9701 49.1449 67.8299 49.1449 67.5782C 49.1449 67.3626 49.3608 67.278 49.6247 67.3901C 49.8885 67.5022 50.109 67.3997 50.1146 67.1624C 50.1205 66.9121 50.3032 66.9911 50.5497 67.3505C 51.1333 68.2015 51.3839 68.1271 51.3839 67.1026C 51.3839 66.6255 51.6049 66.0982 51.8751 65.9309C 52.2789 65.6808 52.35 64.9462 52.2749 61.804L 52.1835 57.9814L 50.1629 57.0874C 47.5117 55.9143 47.2053 56.2223 48.1552 59.1058C 48.7913 61.0368 49.7846 64.8589 49.7846 65.3755C 49.7846 65.4872 49.5915 65.4012 49.3554 65.1843C 49.1193 64.9675 48.8314 64.8949 48.7157 65.023C 48.5999 65.1511 48.5052 65.0701 48.5052 64.8429C 48.5052 64.5783 47.8731 64.4299 46.746 64.4299C 45.7784 64.4299 44.9868 64.5553 44.9868 64.7085C 44.9868 64.8618 44.6989 65.0112 44.3471 65.0406C 43.9816 65.0711 43.7074 64.8757 43.7074 64.5849C 43.7074 64.3049 43.8378 64.0758 43.9973 64.0758C 44.1567 64.0758 44.2119 63.7572 44.1199 63.3678C 44.0227 62.9563 44.1101 62.6597 44.3287 62.6597C 44.5355 62.6597 44.6318 62.5292 44.5427 62.3696C 44.4536 62.21 44.7968 60.7491 45.3055 59.1231C 46.4314 55.5244 46.2973 55.1014 43.7797 54.3113C 42.7724 53.9951 41.6251 53.5107 41.2302 53.2349C 40.5683 52.7724 40.3889 52.8374 38.9295 54.0678L 37.3467 55.4023L 37.3285 61.8632L 37.3103 68.3241L 39.7892 68.3187C 41.1525 68.3159 42.4528 68.1835 42.6787 68.0249L 42.6787 68.0249ZM 45.8109 65.7157C 45.2038 65.0243 45.2038 65.0187 45.8109 65.2956C 46.1493 65.45 46.5701 65.5763 46.7461 65.5763C 46.922 65.5763 47.3428 65.45 47.6812 65.2956C 48.2883 65.0187 48.2883 65.0243 47.6812 65.7157C 47.3428 66.101 46.922 66.4163 46.7461 66.4163C 46.5701 66.4163 46.1493 66.101 45.8109 65.7157ZM 36.2757 61.5092C 36.2017 56.8336 36.0449 54.7272 35.7083 53.8863C 35.2759 52.806 35.2972 52.6119 36.0121 51.1204C 36.9758 49.1097 38.0652 48.1448 39.3714 48.1448C 40.7002 48.1448 41.4053 48.7813 41.5285 50.0919C 41.6045 50.9 41.8961 51.3012 42.7479 51.7694C 44.3738 52.6632 46.5584 53.6547 48.0255 54.1647C 48.7292 54.4093 49.4488 54.7268 49.6248 54.8703C 49.8007 55.0137 50.9334 55.4902 52.1418 55.9291C 53.3503 56.3681 54.7177 56.9459 55.1805 57.2132C 55.6432 57.4804 56.2118 57.7 56.4439 57.7012C 56.6983 57.7027 56.8254 58.0199 56.7638 58.5C 56.6906 59.0703 56.4118 59.3283 55.782 59.4085L 54.9024 59.5206L 54.9024 62.5062C 54.9024 64.9953 55.0062 65.6069 55.5266 66.1829C 56.1458 66.8681 56.158 66.8645 57.0144 65.7404C 58.5126 63.7739 58.7412 62.6951 58.7336 57.6263C 58.7279 53.8068 58.6154 52.6583 58.1342 51.508C 57.3736 49.6896 56.1082 48.3899 54.1027 47.3672C 52.5802 46.5908 52.1506 46.5517 45.1468 46.5517C 38.2485 46.5517 37.6955 46.6001 36.2708 47.3283C 35.4352 47.7555 34.7515 48.2733 34.7515 48.4789C 34.7515 48.6846 34.5716 48.8591 34.3517 48.8666C 34.1318 48.8743 33.4481 49.631 32.8324 50.5483L 31.7129 52.2161L 31.6026 57.0684C 31.4956 61.773 31.5193 61.9819 32.3789 63.9265C 33.1813 65.742 35.2277 67.9701 36.0926 67.9701C 36.2533 67.9701 36.3334 65.1471 36.2757 61.5092ZM 53.9428 62.3057C 53.9428 60.1816 53.8149 58.7655 53.6229 58.7655C 53.431 58.7655 53.3031 60.1816 53.3031 62.3057C 53.3031 64.4299 53.431 65.846 53.6229 65.846C 53.8149 65.846 53.9428 64.4299 53.9428 62.3057ZM 48.3192 63.861C 49.4817 63.3672 48.4336 61.9517 46.9055 61.9517C 46.3525 61.9517 46.2607 62.1026 46.4212 62.7482C 46.6105 63.5094 46.5979 63.5153 46.1383 62.8809C 45.594 62.1296 44.667 62.3329 44.667 63.2035C 44.667 63.6195 44.8471 63.7062 45.3468 63.5307C 45.8042 63.37 45.955 63.4201 45.8077 63.6839C 45.5693 64.1108 47.4231 64.2415 48.3192 63.861ZM 46.906 62.6597C 46.906 62.465 47.0584 62.3057 47.2447 62.3057C 47.431 62.3057 47.4945 62.465 47.3858 62.6597C 47.2771 62.8545 47.1246 63.0138 47.047 63.0138C 46.9695 63.0138 46.906 62.8545 46.906 62.6597ZM 47.8943 61.0283C 48.257 60.5446 48.2296 60.3849 47.7124 59.9663C 47.3775 59.6953 46.9427 59.4735 46.7461 59.4735C 46.5494 59.4735 46.1146 59.6953 45.7797 59.9663C 45.2625 60.3849 45.2351 60.5446 45.5978 61.0283C 45.8326 61.3415 46.3493 61.5977 46.7461 61.5977C 47.1428 61.5977 47.6595 61.3415 47.8943 61.0283ZM 46.2663 60.2406C 46.2663 60.0783 46.4822 59.9456 46.7461 59.9456C 47.0099 59.9456 47.2258 60.0783 47.2258 60.2406C 47.2258 60.4028 47.0099 60.5356 46.7461 60.5356C 46.4822 60.5356 46.2663 60.4028 46.2663 60.2406ZM 47.2258 58.4115C 47.2258 58.2168 47.0099 58.0574 46.7461 58.0574C 46.4822 58.0574 46.2663 58.2168 46.2663 58.4115C 46.2663 58.6062 46.4822 58.7655 46.7461 58.7655C 47.0099 58.7655 47.2258 58.6062 47.2258 58.4115ZM 46.798 56.5528C 46.7092 56.3095 46.6366 56.5086 46.6366 56.9954C 46.6366 57.4822 46.7092 57.6813 46.798 57.4379C 46.8867 57.1945 46.8867 56.7962 46.798 56.5528ZM 87.9706 69.8867C 86.2266 69.1876 84.2096 67.2344 83.1273 65.1967C 82.2954 63.6305 82.2442 63.2724 82.1401 58.2915L 82.0302 53.0382L 83.0092 50.837C 84.1398 48.2951 85.7215 46.7279 88.2147 45.679C 89.7535 45.0317 90.6605 44.9589 97.1912 44.9588C 105.413 44.9586 106.69 45.2446 109.234 47.6546C 111.602 49.8984 111.967 51.0964 112.099 57.0725C 112.243 63.5462 111.886 65.036 109.632 67.3695C 106.793 70.3083 106.98 70.2621 97.603 70.3427C 90.9139 70.4003 89.0292 70.311 87.9706 69.8867ZM 92.7728 68.5896C 92.8811 68.1515 93.4365 67.4719 94.0069 67.0794C 94.9922 66.4014 95.0489 66.2447 95.1394 63.9498C 95.269 60.6619 94.9263 60.2656 92.8052 61.251C 92.4533 61.4145 90.4646 61.9723 88.3858 62.4906C 86.0245 63.0793 84.5401 63.6236 84.4301 63.9409C 84.1144 64.8514 85.8876 67.1564 87.6338 68.1055C 89.2722 68.996 90.0997 69.2449 91.7309 69.338C 92.3556 69.3736 92.6272 69.1785 92.7728 68.5896ZM 99.1334 68.9913C 98.9371 68.7741 98.0326 68.5964 97.1232 68.5964C 96.2138 68.5964 95.3092 68.7741 95.113 68.9913C 94.8506 69.2818 95.382 69.3862 97.1232 69.3862C 98.8644 69.3862 99.3958 69.2818 99.1334 68.9913ZM 106.8 68.0581C 108.246 67.1924 109.57 65.6652 110.003 64.3633C 110.23 63.6798 108.891 63.1079 104.766 62.1275C 103.428 61.8095 101.773 61.3362 101.088 61.0757C 100.404 60.8152 99.7353 60.6762 99.6029 60.7667C 99.4705 60.8573 99.3622 62.1282 99.3622 63.591C 99.3622 66.2879 99.4997 66.6557 100.815 67.4752C 101.159 67.6898 101.489 68.2243 101.548 68.6629C 101.649 69.4171 101.753 69.447 103.467 69.2143C 104.464 69.079 105.964 68.5587 106.8 68.0581ZM 90.2043 58.181C 92.4682 57.0654 94.5193 55.9326 94.7623 55.6637C 95.0726 55.3202 95.2041 54.2271 95.2041 51.9905C 95.2041 48.0508 95.4591 47.4367 97.0953 47.4367C 98.8884 47.4367 99.1769 48.0389 99.3622 52.1687L 99.5221 55.7339L 101.148 56.6302C 102.043 57.1231 103.769 58.0043 104.984 58.5885C 106.199 59.1726 107.956 60.0833 108.887 60.6122L 110.581 61.5738L 110.922 60.6122C 111.122 60.0487 111.193 58.4047 111.094 56.6413C 110.819 51.7132 109.444 49.0704 106.217 47.2633C 104.449 46.2727 104.185 46.2303 98.9136 46.0865C 92.1495 45.9019 89.2595 46.3335 87.1296 47.8463C 85.1983 49.2179 84.4659 50.3608 83.8554 52.9551C 83.374 55.0006 83.1925 59.9674 83.5604 61.0285C 83.7288 61.5143 83.8892 61.4985 84.9198 60.8943C 85.5624 60.5175 87.9405 59.2965 90.2043 58.181ZM 104.821 122.123C 105.522 121.708 105.664 120.047 105.056 119.374C 104.844 119.141 104.369 118.949 104 118.949C 102.614 118.949 102.089 120.618 103.09 121.842C 103.699 122.587 103.964 122.63 104.821 122.123ZM 43.6435 121.003C 44.4517 120.108 43.664 117.887 42.5384 117.887C 41.9693 117.887 40.8288 119.169 40.8288 119.809C 40.8288 121.109 42.7945 121.942 43.6435 121.003ZM 122.109 112.605C 123.144 110.965 123.991 109.485 123.991 109.315C 123.991 109.146 123.364 109.414 122.597 109.911C 121.097 110.884 119.441 111.137 117.49 110.691L 116.267 110.411L 116.919 111.405C 117.571 112.4 118.278 115.143 118.076 115.895C 118.017 116.115 117.888 116.852 117.79 117.533L 117.611 118.772L 118.919 117.179C 119.639 116.303 121.074 114.245 122.109 112.605ZM 41.4336 116.699C 42.6784 116.858 43.0957 116.808 42.9341 116.518C 42.8109 116.298 42.5373 116.117 42.3262 116.117C 42.115 116.117 41.7624 115.799 41.5427 115.409C 41.323 115.02 40.9383 114.701 40.6879 114.701C 40.4375 114.701 39.9355 114.239 39.5723 113.675C 39.2092 113.11 38.4437 112.343 37.8713 111.968L 36.8306 111.288L 36.8306 113.968C 36.8306 115.442 36.7147 116.906 36.573 117.22C 36.3446 117.727 36.5074 117.718 38.0124 117.136C 39.2594 116.653 40.1664 116.538 41.4336 116.699ZM 114.971 112.86C 115.182 112.627 115.355 112.021 115.355 111.515C 115.355 110.402 114.821 109.745 113.916 109.745C 113.01 109.745 112.476 110.402 112.476 111.515C 112.476 112.628 113.01 113.285 113.916 113.285C 114.285 113.285 114.76 113.094 114.971 112.86ZM 34.0478 111.444C 35.0539 110.331 33.8771 108.185 32.4817 108.589C 31.2932 108.933 30.9955 110.83 32.0094 111.598C 32.5377 111.998 33.621 111.917 34.0478 111.444ZM 33.0171 106.122C 32.2118 105.103 31.553 104.077 31.553 103.841C 31.553 103.605 31.2916 103.204 30.9722 102.95C 30.6527 102.696 30.2939 102.198 30.1748 101.845C 29.8101 100.764 29.4015 101.491 29.252 103.487C 29.1622 104.685 28.8448 105.796 28.3905 106.503C 27.5988 107.733 27.6224 107.75 29.4977 107.27C 30.4268 107.033 31.2532 107.073 32.3764 107.412C 33.2429 107.673 34.071 107.907 34.2166 107.931C 34.3621 107.955 33.8224 107.141 33.0171 106.122ZM 122.648 101.177C 122.859 100.944 123.031 100.303 123.031 99.7538C 123.031 97.8587 120.505 97.5946 120.068 99.444C 119.703 100.988 121.642 102.291 122.648 101.177ZM 26.5952 98.5885C 26.5952 97.4037 25.8618 96.816 24.7638 97.121C 23.5912 97.4468 23.4193 98.6503 24.3917 99.7266C 25.1182 100.531 25.2448 100.561 25.8902 100.087C 26.3345 99.7604 26.5952 99.2063 26.5952 98.5885ZM 26.7729 94.9644C 26.2603 93.8448 25.6696 92.172 25.4604 91.2471C 25.2511 90.3222 24.9869 89.5655 24.8731 89.5655C 24.7594 89.5655 24.3995 90.3969 24.0734 91.4131C 23.7474 92.4293 23.0203 93.7701 22.4579 94.3926L 21.4352 95.5246L 23.0696 95.5083C 24.1324 95.4977 25.1467 95.7503 25.9695 96.2304C 26.6655 96.6365 27.3407 96.9757 27.4699 96.9844C 27.5992 96.993 27.2855 96.084 26.7729 94.9644ZM 132.395 86.2139C 132.463 85.1976 132.386 85.1229 130.948 84.8154C 130.113 84.6368 129.336 84.5941 129.221 84.7205C 129.107 84.8469 129.416 85.5934 129.908 86.3793C 130.5 87.3241 130.86 88.4357 130.973 89.6604L 131.142 91.5126L 131.733 89.4001C 132.058 88.2382 132.356 86.8044 132.395 86.2139ZM 128.085 87.7246C 128.696 87.0486 128.531 85.7598 127.758 85.1603C 127.367 84.8572 126.935 84.6092 126.799 84.6092C 126.375 84.6092 125.27 85.9979 125.27 86.531C 125.27 87.8307 127.236 88.6642 128.085 87.7246ZM 21.3176 86.3793C 21.6694 85.9899 21.9573 85.4627 21.9573 85.2079C 21.9573 83.3382 19.4939 82.953 18.931 84.7347C 18.6566 85.6035 18.7168 85.8396 19.3604 86.4164C 20.3012 87.2596 20.5261 87.2553 21.3176 86.3793ZM 23.4018 82.9276C 23.2768 82.0027 23.1185 81.1453 23.0502 81.0223C 22.9372 80.819 20.5438 81.225 19.4147 81.639C 19.1366 81.7409 19.5847 82.1342 20.5342 82.6217C 21.4049 83.0687 22.3148 83.6988 22.5562 84.0218C 23.3457 85.0782 23.641 84.6961 23.4018 82.9276Z" />
  </defs>
</svg>
