<svg width="347" height="54" viewBox="0 0 347 54" version="1.1" xmlns="http://www.w3.org/2000/svg" xmlns:xlink="http://www.w3.org/1999/xlink">
<title>search</title>
<desc>Created using Figma</desc>
<g id="Canvas" transform="translate(-5916 1233)">
<rect x="5916" y="-1233" width="347" height="54" fill="#FFFFFF"/>
<g id="components">
<g id="tabs">
<g id="bg">
<use xlink:href="#path0_fill" transform="translate(5870 -1659)" fill="#EEEEEE"/>
</g>
<g id="search with tabs">
<mask id="mask0_outline" mask-type="alpha">
<g id="bg">
<use xlink:href="#path1_fill" transform="translate(5909 -1263)" fill="#FFFFFF"/>
<mask id="mask1_outline_ins">
<use xlink:href="#path1_fill" fill="white" transform="translate(5909 -1263)"/>
</mask>
<g mask="url(#mask1_outline_ins)">
<use xlink:href="#path2_stroke_2x" transform="translate(5909 -1263)" fill="#FFFFFF"/>
</g>
</g>
</mask>
<g id="bg" mask="url(#mask0_outline)">
<use xlink:href="#path1_fill" transform="translate(5909 -1263)" fill="#FFFFFF"/>
<mask id="mask2_outline_ins">
<use xlink:href="#path1_fill" fill="white" transform="translate(5909 -1263)"/>
</mask>
<g mask="url(#mask2_outline_ins)">
<use xlink:href="#path2_stroke_2x" transform="translate(5909 -1263)" fill="#000000" fill-opacity="0.12"/>
</g>
</g>
<g id="app bar + status bar" mask="url(#mask0_outline)">
<g id="app bar">
<g id="app bar bg" filter="url(#filter0_dd)">
<use xlink:href="#path3_fill" transform="translate(5909 -1263)" fill="#00BBD3"/>
</g>
<g id="search">
<g id="search bg" filter="url(#filter1_dd)">
<use xlink:href="#path4_fill" transform="translate(5918 -1231)" fill="#FAFAFA"/>
<mask id="mask3_outline_ins">
<use xlink:href="#path4_fill" fill="white" transform="translate(5918 -1231)"/>
</mask>
<g mask="url(#mask3_outline_ins)">
<use xlink:href="#path5_stroke_2x" transform="translate(5918 -1231)" fill="url(#paint7_linear)"/>
<use xlink:href="#path5_stroke_2x" transform="translate(5918 -1231)" fill="url(#paint8_linear)" style="mix-blend-mode:soft-light"/>
</g>
</g>
<g id="search">
<g id="Shape" opacity="0.54">
<use xlink:href="#path6_fill" transform="matrix(1 0 0 -1 5937 -1198.51)"/>
</g>
</g>
<g id="mic">
<g id="mic" opacity="0.54">
<use xlink:href="#path7_fill" transform="translate(6226 -1217)"/>
</g>
</g>
</g>
</g>
</g>
</g>
</g>
</g>
</g>
<defs>
<filter id="filter0_dd" filterUnits="userSpaceOnUse" x="5905" y="-1267" width="368" height="148" color-interpolation-filters="sRGB">
<feFlood flood-opacity="0" result="BackgroundImageFix"/>
<feColorMatrix in="SourceAlpha" type="matrix" values="0 0 0 0 0 0 0 0 0 0 0 0 0 0 0 0 0 0 255 0"/>
<feOffset dx="0" dy="4"/>
<feGaussianBlur stdDeviation="2"/>
<feColorMatrix type="matrix" values="0 0 0 0 0 0 0 0 0 0 0 0 0 0 0 0 0 0 0.24 0"/>
<feBlend mode="normal" in2="BackgroundImageFix" result="effect1_dropShadow"/>
<feColorMatrix in="SourceAlpha" type="matrix" values="0 0 0 0 0 0 0 0 0 0 0 0 0 0 0 0 0 0 255 0"/>
<feOffset dx="0" dy="0"/>
<feGaussianBlur stdDeviation="2"/>
<feColorMatrix type="matrix" values="0 0 0 0 0 0 0 0 0 0 0 0 0 0 0 0 0 0 0.12 0"/>
<feBlend mode="normal" in2="effect1_dropShadow" result="effect2_dropShadow"/>
<feBlend mode="normal" in="SourceGraphic" in2="effect2_dropShadow" result="shape"/>
</filter>
<filter id="filter1_dd" filterUnits="userSpaceOnUse" x="5916" y="-1233" width="347" height="54" color-interpolation-filters="sRGB">
<feFlood flood-opacity="0" result="BackgroundImageFix"/>
<feColorMatrix in="SourceAlpha" type="matrix" values="0 0 0 0 0 0 0 0 0 0 0 0 0 0 0 0 0 0 255 0"/>
<feOffset dx="0" dy="2"/>
<feGaussianBlur stdDeviation="1"/>
<feColorMatrix type="matrix" values="0 0 0 0 0 0 0 0 0 0 0 0 0 0 0 0 0 0 0.24 0"/>
<feBlend mode="normal" in2="BackgroundImageFix" result="effect1_dropShadow"/>
<feColorMatrix in="SourceAlpha" type="matrix" values="0 0 0 0 0 0 0 0 0 0 0 0 0 0 0 0 0 0 255 0"/>
<feOffset dx="0" dy="0"/>
<feGaussianBlur stdDeviation="1"/>
<feColorMatrix type="matrix" values="0 0 0 0 0 0 0 0 0 0 0 0 0 0 0 0 0 0 0.12 0"/>
<feBlend mode="normal" in2="effect1_dropShadow" result="effect2_dropShadow"/>
<feBlend mode="normal" in="SourceGraphic" in2="effect2_dropShadow" result="shape"/>
</filter>
<linearGradient id="paint7_linear" x1="0" y1="0" x2="1" y2="0" gradientUnits="userSpaceOnUse" gradientTransform="matrix(0 47.6843 -340.744 0 171.5 0)">
<stop offset="0" stop-color="#000000" stop-opacity="0"/>
<stop offset="0.8" stop-color="#000000" stop-opacity="0"/>
<stop offset="1" stop-color="#000000" stop-opacity="0.04"/>
</linearGradient>
<linearGradient id="paint8_linear" x1="0" y1="0" x2="1" y2="0" gradientUnits="userSpaceOnUse" gradientTransform="matrix(0 46.23 -330.352 0 171.5 1.04777)">
<stop offset="0" stop-color="#FFFFFF"/>
<stop offset="0.2" stop-color="#FFFFFF" stop-opacity="0"/>
<stop offset="1" stop-color="#FFFFFF" stop-opacity="0"/>
</linearGradient>
<path id="path0_fill" fill-rule="evenodd" d="M 0 0L 0 1080L 439 1080L 439 0L 0 0Z"/>
<path id="path1_fill" fill-rule="evenodd" d="M 306 303L 297 294L 288 303L 279 294L 270 303L 261 294L 252 303L 243 294L 234 303L 225 294L 216 303L 207 294L 198 303L 189 294L 180 303L 171 294L 162 303L 153 294L 144 303L 135 294L 126 303L 117 294L 108 303L 99 294L 90 303L 81 294L 72 303L 63 294L 54 303L 45 294L 36 303L 27 294L 18 303L 9 294L 0 303L 0 0L 360 0L 360 303L 351 294L 342 303L 333 294L 324 303L 315 294L 306 303Z"/>
<path id="path2_stroke_2x" d="M 306 303L 305.646 303.354L 306 303.707L 306.354 303.354L 306 303ZM 297 294L 297.354 293.646L 297 293.293L 296.646 293.646L 297 294ZM 288 303L 287.646 303.354L 288 303.707L 288.354 303.354L 288 303ZM 279 294L 279.354 293.646L 279 293.293L 278.646 293.646L 279 294ZM 270 303L 269.646 303.354L 270 303.707L 270.354 303.354L 270 303ZM 261 294L 261.354 293.646L 261 293.293L 260.646 293.646L 261 294ZM 252 303L 251.646 303.354L 252 303.707L 252.354 303.354L 252 303ZM 243 294L 243.354 293.646L 243 293.293L 242.646 293.646L 243 294ZM 234 303L 233.646 303.354L 234 303.707L 234.354 303.354L 234 303ZM 225 294L 225.354 293.646L 225 293.293L 224.646 293.646L 225 294ZM 216 303L 215.646 303.354L 216 303.707L 216.354 303.354L 216 303ZM 207 294L 207.354 293.646L 207 293.293L 206.646 293.646L 207 294ZM 198 303L 197.646 303.354L 198 303.707L 198.354 303.354L 198 303ZM 189 294L 189.354 293.646L 189 293.293L 188.646 293.646L 189 294ZM 180 303L 179.646 303.354L 180 303.707L 180.354 303.354L 180 303ZM 171 294L 171.354 293.646L 171 293.293L 170.646 293.646L 171 294ZM 162 303L 161.646 303.354L 162 303.707L 162.354 303.354L 162 303ZM 153 294L 153.354 293.646L 153 293.293L 152.646 293.646L 153 294ZM 144 303L 143.646 303.354L 144 303.707L 144.354 303.354L 144 303ZM 135 294L 135.354 293.646L 135 293.293L 134.646 293.646L 135 294ZM 126 303L 125.646 303.354L 126 303.707L 126.354 303.354L 126 303ZM 117 294L 117.354 293.646L 117 293.293L 116.646 293.646L 117 294ZM 108 303L 107.646 303.354L 108 303.707L 108.354 303.354L 108 303ZM 99 294L 99.3536 293.646L 99 293.293L 98.6464 293.646L 99 294ZM 90 303L 89.6464 303.354L 90 303.707L 90.3536 303.354L 90 303ZM 81 294L 81.3536 293.646L 81 293.293L 80.6464 293.646L 81 294ZM 72 303L 71.6464 303.354L 72 303.707L 72.3536 303.354L 72 303ZM 63 294L 63.3536 293.646L 63 293.293L 62.6464 293.646L 63 294ZM 54 303L 53.6464 303.354L 54 303.707L 54.3536 303.354L 54 303ZM 45 294L 45.3536 293.646L 45 293.293L 44.6464 293.646L 45 294ZM 36 303L 35.6464 303.354L 36 303.707L 36.3536 303.354L 36 303ZM 27 294L 27.3536 293.646L 27 293.293L 26.6464 293.646L 27 294ZM 18 303L 17.6464 303.354L 18 303.707L 18.3536 303.354L 18 303ZM 9 294L 9.35355 293.646L 9 293.293L 8.64645 293.646L 9 294ZM 0 303L -0.5 303L -0.5 304.207L 0.353553 303.354L 0 303ZM 0 0L 0 -0.5L -0.5 -0.5L -0.5 0L 0 0ZM 360 0L 360.5 0L 360.5 -0.5L 360 -0.5L 360 0ZM 360 303L 359.646 303.354L 360.5 304.207L 360.5 303L 360 303ZM 351 294L 351.354 293.646L 351 293.293L 350.646 293.646L 351 294ZM 342 303L 341.646 303.354L 342 303.707L 342.354 303.354L 342 303ZM 333 294L 333.354 293.646L 333 293.293L 332.646 293.646L 333 294ZM 324 303L 323.646 303.354L 324 303.707L 324.354 303.354L 324 303ZM 315 294L 315.354 293.646L 315 293.293L 314.646 293.646L 315 294ZM 306.354 302.646L 297.354 293.646L 296.646 294.354L 305.646 303.354L 306.354 302.646ZM 296.646 293.646L 287.646 302.646L 288.354 303.354L 297.354 294.354L 296.646 293.646ZM 288.354 302.646L 279.354 293.646L 278.646 294.354L 287.646 303.354L 288.354 302.646ZM 278.646 293.646L 269.646 302.646L 270.354 303.354L 279.354 294.354L 278.646 293.646ZM 270.354 302.646L 261.354 293.646L 260.646 294.354L 269.646 303.354L 270.354 302.646ZM 260.646 293.646L 251.646 302.646L 252.354 303.354L 261.354 294.354L 260.646 293.646ZM 252.354 302.646L 243.354 293.646L 242.646 294.354L 251.646 303.354L 252.354 302.646ZM 242.646 293.646L 233.646 302.646L 234.354 303.354L 243.354 294.354L 242.646 293.646ZM 234.354 302.646L 225.354 293.646L 224.646 294.354L 233.646 303.354L 234.354 302.646ZM 224.646 293.646L 215.646 302.646L 216.354 303.354L 225.354 294.354L 224.646 293.646ZM 216.354 302.646L 207.354 293.646L 206.646 294.354L 215.646 303.354L 216.354 302.646ZM 206.646 293.646L 197.646 302.646L 198.354 303.354L 207.354 294.354L 206.646 293.646ZM 198.354 302.646L 189.354 293.646L 188.646 294.354L 197.646 303.354L 198.354 302.646ZM 188.646 293.646L 179.646 302.646L 180.354 303.354L 189.354 294.354L 188.646 293.646ZM 180.354 302.646L 171.354 293.646L 170.646 294.354L 179.646 303.354L 180.354 302.646ZM 170.646 293.646L 161.646 302.646L 162.354 303.354L 171.354 294.354L 170.646 293.646ZM 162.354 302.646L 153.354 293.646L 152.646 294.354L 161.646 303.354L 162.354 302.646ZM 152.646 293.646L 143.646 302.646L 144.354 303.354L 153.354 294.354L 152.646 293.646ZM 144.354 302.646L 135.354 293.646L 134.646 294.354L 143.646 303.354L 144.354 302.646ZM 134.646 293.646L 125.646 302.646L 126.354 303.354L 135.354 294.354L 134.646 293.646ZM 126.354 302.646L 117.354 293.646L 116.646 294.354L 125.646 303.354L 126.354 302.646ZM 116.646 293.646L 107.646 302.646L 108.354 303.354L 117.354 294.354L 116.646 293.646ZM 108.354 302.646L 99.3536 293.646L 98.6464 294.354L 107.646 303.354L 108.354 302.646ZM 98.6464 293.646L 89.6464 302.646L 90.3536 303.354L 99.3536 294.354L 98.6464 293.646ZM 90.3536 302.646L 81.3536 293.646L 80.6464 294.354L 89.6464 303.354L 90.3536 302.646ZM 80.6464 293.646L 71.6464 302.646L 72.3536 303.354L 81.3536 294.354L 80.6464 293.646ZM 72.3536 302.646L 63.3536 293.646L 62.6464 294.354L 71.6464 303.354L 72.3536 302.646ZM 62.6464 293.646L 53.6464 302.646L 54.3536 303.354L 63.3536 294.354L 62.6464 293.646ZM 54.3536 302.646L 45.3536 293.646L 44.6464 294.354L 53.6464 303.354L 54.3536 302.646ZM 44.6464 293.646L 35.6464 302.646L 36.3536 303.354L 45.3536 294.354L 44.6464 293.646ZM 36.3536 302.646L 27.3536 293.646L 26.6464 294.354L 35.6464 303.354L 36.3536 302.646ZM 26.6464 293.646L 17.6464 302.646L 18.3536 303.354L 27.3536 294.354L 26.6464 293.646ZM 18.3536 302.646L 9.35355 293.646L 8.64645 294.354L 17.6464 303.354L 18.3536 302.646ZM 8.64645 293.646L -0.353553 302.646L 0.353553 303.354L 9.35355 294.354L 8.64645 293.646ZM 0.5 303L 0.5 0L -0.5 0L -0.5 303L 0.5 303ZM 0 0.5L 360 0.5L 360 -0.5L 0 -0.5L 0 0.5ZM 359.5 0L 359.5 303L 360.5 303L 360.5 0L 359.5 0ZM 360.354 302.646L 351.354 293.646L 350.646 294.354L 359.646 303.354L 360.354 302.646ZM 350.646 293.646L 341.646 302.646L 342.354 303.354L 351.354 294.354L 350.646 293.646ZM 342.354 302.646L 333.354 293.646L 332.646 294.354L 341.646 303.354L 342.354 302.646ZM 332.646 293.646L 323.646 302.646L 324.354 303.354L 333.354 294.354L 332.646 293.646ZM 324.354 302.646L 315.354 293.646L 314.646 294.354L 323.646 303.354L 324.354 302.646ZM 314.646 293.646L 305.646 302.646L 306.354 303.354L 315.354 294.354L 314.646 293.646Z"/>
<path id="path3_fill" fill-rule="evenodd" d="M 360 0L 0 0L 0 136L 360 136L 360 0Z"/>
<path id="path4_fill" fill-rule="evenodd" d="M 2 0C 0.89543 0 0 0.89543 0 2L 0 46C 0 47.1046 0.89543 48 2 48L 341 48C 342.105 48 343 47.1046 343 46L 343 2C 343 0.89543 342.105 0 341 0L 2 0Z"/>
<path id="path5_stroke_2x" d="M -1 2L -1 46L 1 46L 1 2L -1 2ZM 2 49L 341 49L 341 47L 2 47L 2 49ZM 344 46L 344 2L 342 2L 342 46L 344 46ZM 341 -1L 2 -1L 2 1L 341 1L 341 -1ZM 1 2C 1 1.44772 1.44772 1 2 1L 2 -1C 0.343146 -1 -1 0.343146 -1 2L 1 2ZM -1 46C -1 47.6569 0.343146 49 2 49L 2 47C 1.44772 47 1 46.5523 1 46L -1 46ZM 341 49C 342.657 49 344 47.6569 344 46L 342 46C 342 46.5523 341.552 47 341 47L 341 49ZM 344 2C 344 0.343146 342.657 -1 341 -1L 341 1C 341.552 1 342 1.44772 342 2L 344 2Z"/>
<path id="path6_fill" fill-rule="evenodd" d="M 12.502 6.49097L 11.708 6.49097L 11.432 6.76497C 12.407 7.90197 13 9.37597 13 10.991C 13 14.581 10.09 17.491 6.5 17.491C 2.91 17.491 0 14.581 0 10.991C 0 7.40097 2.91 4.49097 6.5 4.49097C 8.115 4.49097 9.588 5.08297 10.725 6.05697L 11.001 5.78297L 11.001 4.99097L 15.999 -3.24249e-05L 17.49 1.49097L 12.502 6.49097ZM 6.5 6.49097C 4.014 6.49097 2 8.50497 2 10.991C 2 13.476 4.014 15.491 6.5 15.491C 8.985 15.491 11 13.476 11 10.991C 11 8.50497 8.985 6.49097 6.5 6.49097Z"/>
<path id="path7_fill" fill-rule="evenodd" d="M 9.99 9L 9.999 3C 9.999 1.342 8.657 0 7 0C 5.344 0 4 1.342 4 3L 4 9C 4 10.656 5.344 12 7 12C 8.657 12 9.99 10.656 9.99 9ZM 12.299 9C 12.299 12 9.762 14.1 7 14.1C 4.239 14.1 1.7 12 1.7 9L 0 9C 0 12.415 2.719 15.233 6 15.718L 6 19L 8 19L 8 15.718C 11.279 15.233 14 12.415 14 9L 12.299 9Z"/>
</defs>
</svg>
